<?xml version="1.0" standalone="no"?><!DOCTYPE svg PUBLIC "-//W3C//DTD SVG 1.1//EN" "http://www.w3.org/Graphics/SVG/1.1/DTD/svg11.dtd"><svg width="200" height="200" viewBox="0 0 200 200" version="1.1" xmlns="http://www.w3.org/2000/svg" xmlns:xlink="http://www.w3.org/1999/xlink"><defs><style type="text/css"><![CDATA[
@font-face { font-family: ifont; src: url("//at.alicdn.com/t/font_1442373896_4754455.eot?#iefix") format("embedded-opentype"), url("//at.alicdn.com/t/font_1442373896_4754455.woff") format("woff"), url("//at.alicdn.com/t/font_1442373896_4754455.ttf") format("truetype"), url("//at.alicdn.com/t/font_1442373896_4754455.svg#ifont") format("svg"); }

]]></style></defs><g class="transform-group"><g transform="scale(0.1953125, 0.1953125)"><path d="M511.994 30.972c265.239 0 481.024 215.782 481.024 481.021S777.233 993.017 511.994 993.017c-265.234 0-481.021-215.784-481.021-481.024C30.972 246.759 246.759 30.972 511.994 30.972M511.994 0.01C229.234 0.01 0.01 229.234 0.01 511.994c0 282.764 229.224 511.989 511.984 511.989 282.764 0 511.984-229.224 511.984-511.989C1023.982 229.234 794.763 0.01 511.994 0.01L511.994 0.01zM234.209 407.136c0 38.865 31.505 70.37 70.367 70.37 38.865 0 70.37-31.505 70.37-70.37 0-38.862-31.505-70.367-70.37-70.367C265.714 336.769 234.209 368.274 234.209 407.136zM649.038 407.136c0 38.867 31.51 70.375 70.38 70.375 38.86 0 70.37-31.507 70.37-70.375 0-38.865-31.51-70.372-70.37-70.372C680.548 336.764 649.038 368.272 649.038 407.136zM511.999 721.168c147.96 1.01 244.804-101.835 244.804-101.835l19.295 21.71c0 0-81.86 127.545-260.289 127.83-178.007 0.285-267.909-125.415-267.909-125.415l21.705-24.125C269.604 619.333 365.762 720.173 511.999 721.168z" fill="#ccc"></path></g></g></svg>