<?xml version="1.0" standalone="no"?><!DOCTYPE svg PUBLIC "-//W3C//DTD SVG 1.1//EN" "http://www.w3.org/Graphics/SVG/1.1/DTD/svg11.dtd"><svg width="200" height="200" viewBox="0 0 200 200" version="1.1" xmlns="http://www.w3.org/2000/svg" xmlns:xlink="http://www.w3.org/1999/xlink"><defs><style type="text/css"><![CDATA[

]]></style></defs><g class="transform-group"><g transform="scale(0.1953125, 0.1953125)"><path d="M907.2 116.8c-6.4-6.4-16-6.4-22.4 0l-156.8 156.8c-64-38.4-137.6-65.6-216-65.6C260.8 208 59.2 491.2 51.2 502.4c-3.2 4.8-3.2 12.8 0 17.6 4.8 8 91.2 126.4 217.6 211.2l-152 152c-6.4 6.4-6.4 16 0 22.4 3.2 4.8 6.4 6.4 11.2 6.4s8-1.6 11.2-4.8l156.8-156.8c64 38.4 137.6 65.6 216 65.6 248 0 452.8-283.2 460.8-294.4 3.2-4.8 3.2-12.8 0-19.2-4.8-8-91.2-126.4-217.6-211.2l152-152c6.4-6.4 6.4-16 0-22.4zM83.2 512C120 464 300.8 240 512 240c68.8 0 132.8 24 192 57.6l-80 80C593.6 352 555.2 336 512 336c-97.6 0-176 78.4-176 176 0 43.2 16 81.6 41.6 112l-84.8 84.8C185.6 640 107.2 542.4 83.2 512zM400 601.6c-19.2-24-32-56-32-89.6 0-80 64-144 144-144 33.6 0 65.6 11.2 89.6 32L400 601.6z m224-179.2c19.2 24 32 56 32 89.6 0 80-64 144-144 144-33.6 0-65.6-11.2-89.6-32L624 422.4zM940.8 512C902.4 560 720 784 512 784c-68.8 0-132.8-24-192-57.6l80-80c30.4 25.6 70.4 41.6 112 41.6 97.6 0 176-78.4 176-176 0-43.2-16-81.6-41.6-112l84.8-84.8C838.4 384 916.8 481.6 940.8 512z" fill="#a9b7b7"></path></g></g></svg>