<?xml version="1.0" standalone="no"?><!DOCTYPE svg PUBLIC "-//W3C//DTD SVG 1.1//EN" "http://www.w3.org/Graphics/SVG/1.1/DTD/svg11.dtd"><svg width="200" height="200" viewBox="0 0 200 200" version="1.1" xmlns="http://www.w3.org/2000/svg" xmlns:xlink="http://www.w3.org/1999/xlink"><defs><style type="text/css"><![CDATA[

]]></style></defs><g class="transform-group"><g transform="scale(0.1953125, 0.1953125)"><path d="M962.41027 511.792269 905.058051 443.432345c30.108738-36.255739 55.207369-77.30362 74.140581-122.626875 6.777357-16.22759-0.870834-34.859949-17.098423-41.637306-16.290011-6.797823-34.859949 0.8913-41.637306 17.098423C853.249081 457.180464 696.791703 557.13906 512.148379 557.13906c-186.156794 0-342.67557-100.186793-408.499741-261.452687-6.632047-16.290011-25.181519-24.124444-41.491996-17.450441-16.290011 6.632047-24.103978 25.222451-17.450441 41.49302 19.34765 47.403636 46.134737 90.343611 78.658478 128.121006l-53.6632 63.942311c-11.295254 13.45136-9.534144 33.533744 3.937682 44.850487 5.948479 4.994758 13.223163 7.440459 20.435425 7.440459 9.077749 0 18.114566-3.875261 24.415063-11.378142l49.720402-59.244312c34.487465 30.608112 73.528644 56.220443 115.855658 76.374458l-30.384008 83.471087c-6.031367 16.518209 2.486634 34.777061 19.026332 40.787962 3.585665 1.305739 7.254218 1.927909 10.880815 1.927909 12.994965 0 25.201985-8.020674 29.907147-20.953218l29.694299-81.572854c43.456744 14.417361 89.441055 23.432689 137.125077 26.191522l0 96.624664c0 17.575284 14.258749 31.834033 31.834033 31.834033 17.575284 0 31.834033-14.258749 31.834033-31.834033l0-96.589872c50.570769-2.822278 98.975199-12.387122 144.327106-27.960819l30.326702 83.307358c4.705162 12.932544 16.912182 20.953218 29.907147 20.953218 3.626597 0 7.29515-0.62217 10.880815-1.927909 16.538675-6.009877 25.056676-24.269753 19.026332-40.787962l-31.321356-86.041632c41.663912-20.509103 79.855746-46.515407 113.648386-77.547167l52.844555 62.987566c6.300496 7.502881 15.315824 11.378142 24.415063 11.378142 7.212262 0 14.46648-2.445702 20.435425-7.440459C971.944414 545.326013 973.705524 525.263072 962.41027 511.792269z" fill="#a9b7b7"></path></g></g></svg>