<?xml version="1.0" standalone="no"?><!DOCTYPE svg PUBLIC "-//W3C//DTD SVG 1.1//EN" "http://www.w3.org/Graphics/SVG/1.1/DTD/svg11.dtd"><svg width="200" height="200" viewBox="0 0 200 200" version="1.1" xmlns="http://www.w3.org/2000/svg" xmlns:xlink="http://www.w3.org/1999/xlink"><defs><style type="text/css"><![CDATA[
@font-face { font-family: ifont; src: url("//at.alicdn.com/t/font_1442373896_4754455.eot?#iefix") format("embedded-opentype"), url("//at.alicdn.com/t/font_1442373896_4754455.woff") format("woff"), url("//at.alicdn.com/t/font_1442373896_4754455.ttf") format("truetype"), url("//at.alicdn.com/t/font_1442373896_4754455.svg#ifont") format("svg"); }

]]></style></defs><g class="transform-group"><g transform="scale(0.1953125, 0.1953125)"><path d="M556.50768 511.991814l394.429281 394.419048c12.297071 12.308327 12.297071 32.240285 0 44.517913-12.299117 12.308327-32.220842 12.308327-44.517913 0L512 556.51075 117.582999 950.928774c-12.299117 12.308327-32.232099 12.308327-44.517913 0-12.299117-12.277628-12.299117-32.210609 0-44.517913L467.481064 511.991814 73.065086 117.594255c-12.299117-12.277628-12.299117-32.240285 0-44.50768 12.286838-12.328793 32.218796-12.328793 44.517913 0l394.417001 394.407792L906.418025 73.086575c12.297071-12.328793 32.218796-12.328793 44.517913 0 12.297071 12.267395 12.297071 32.230052 0 44.50768L556.50768 511.991814z" fill="#ccc"></path></g></g></svg>