<?xml version="1.0" standalone="no"?><!DOCTYPE svg PUBLIC "-//W3C//DTD SVG 1.1//EN" "http://www.w3.org/Graphics/SVG/1.1/DTD/svg11.dtd"><svg t="1491013248969" class="icon" style="" viewBox="0 0 1024 1024" version="1.1" xmlns="http://www.w3.org/2000/svg" p-id="5966" xmlns:xlink="http://www.w3.org/1999/xlink" width="200" height="200"><defs><style type="text/css"></style></defs><path d="M588.8 147.2c-25.6-32-38.4-57.6-76.8-57.6s-57.6 32-76.8 57.6L25.6 838.4c-19.2 25.6-32 57.6-19.2 89.6 6.4 25.6 32 38.4 70.4 38.4h870.4c51.2 0 70.4-25.6 70.4-38.4 12.8-32 0-64-19.2-89.6L588.8 147.2zM473.6 377.6c0-25.6 25.6-51.2 51.2-51.2s51.2 19.2 51.2 51.2v236.8c0 25.6-25.6 51.2-51.2 51.2s-51.2-25.6-51.2-51.2V377.6m51.2 454.4c-25.6 0-51.2-25.6-51.2-51.2s25.6-51.2 51.2-51.2 51.2 25.6 51.2 51.2c0 32-25.6 51.2-51.2 51.2m0 0z" fill="#bfbfbf" p-id="5967"></path></svg>