<?xml version="1.0" standalone="no"?><!DOCTYPE svg PUBLIC "-//W3C//DTD SVG 1.1//EN" "http://www.w3.org/Graphics/SVG/1.1/DTD/svg11.dtd"><svg width="200" height="200" viewBox="0 0 200 200" version="1.1" xmlns="http://www.w3.org/2000/svg" xmlns:xlink="http://www.w3.org/1999/xlink"><defs><style type="text/css"><![CDATA[
@font-face { font-family: ifont; src: url("//at.alicdn.com/t/font_1442373896_4754455.eot?#iefix") format("embedded-opentype"), url("//at.alicdn.com/t/font_1442373896_4754455.woff") format("woff"), url("//at.alicdn.com/t/font_1442373896_4754455.ttf") format("truetype"), url("//at.alicdn.com/t/font_1442373896_4754455.svg#ifont") format("svg"); }

]]></style></defs><g class="transform-group"><g transform="scale(0.1953125, 0.1953125)"><path d="M899.669333 356.693333l-336-335.104c-17.749333-17.749333-42.538667-23.893333-65.365333-18.688-0.170667 0.042667-0.384 0.128-0.597333 0.170667-3.712 0.896-7.424 1.92-11.008 3.413333-0.768 0.298667-1.493333 0.64-2.304 0.938667-9.386667 3.413333-18.261333 8.661333-25.770667 16.170667L124.288 357.162667c-27.392 27.306667-27.392 71.637333 0 99.072 27.434667 27.306667 71.893333 27.306667 99.242667 0l220.544-220.032 0 714.666667c0 37.461333 30.421333 67.84 67.925333 67.84 37.589333 0 68.010667-30.378667 68.010667-67.84L580.010667 236.586667l220.074667 219.52c27.434667 27.477333 72.064 27.477333 99.584 0S927.146667 384.128 899.669333 356.693333z" fill="#a9b7b7"></path></g></g></svg>