<?xml version="1.0" standalone="no"?><!DOCTYPE svg PUBLIC "-//W3C//DTD SVG 1.1//EN" "http://www.w3.org/Graphics/SVG/1.1/DTD/svg11.dtd"><svg width="200" height="200" viewBox="0 0 200 200" version="1.1" xmlns="http://www.w3.org/2000/svg" xmlns:xlink="http://www.w3.org/1999/xlink"><defs><style type="text/css"><![CDATA[
@font-face { font-family: ifont; src: url("//at.alicdn.com/t/font_1442373896_4754455.eot?#iefix") format("embedded-opentype"), url("//at.alicdn.com/t/font_1442373896_4754455.woff") format("woff"), url("//at.alicdn.com/t/font_1442373896_4754455.ttf") format("truetype"), url("//at.alicdn.com/t/font_1442373896_4754455.svg#ifont") format("svg"); }

]]></style></defs><g class="transform-group"><g transform="scale(0.1953125, 0.1953125)"><path d="M954.88 605.056c-33.28-12.032-70.016 5.056-82.048 38.272-0.448 1.216-1.024 2.24-1.408 3.456l-1.28-0.448c-33.92 90.432-100.48 164.864-185.536 208.256-0.768 0.384-1.408 0.832-2.176 1.216-15.488 7.744-31.68 14.272-48.32 19.968-3.712 1.216-7.36 2.24-11.072 3.392C608 883.648 592.64 887.424 576.896 890.176c-1.984 0.32-3.968 0.896-5.952 1.216-17.6 2.752-35.712 3.968-54.08 4.224-1.792 0-3.648 0-5.44 0-2.368 0-4.672 0.064-6.976 0-7.616-0.192-15.232-0.576-22.72-1.216-5.312-0.384-10.624-0.896-15.936-1.472-0.192-0.064-0.448-0.064-0.64-0.064-6.592-0.832-13.056-1.856-19.456-3.008-6.72-1.216-13.504-2.496-20.224-4.032-5.12-1.216-10.176-2.496-15.232-3.904-7.744-2.176-15.488-4.48-23.168-7.168-4.032-1.344-8.064-2.88-12.032-4.352-1.344-0.576-2.688-1.152-4.032-1.664-6.464-2.56-12.928-5.184-19.136-8.064-3.712-1.664-7.36-3.52-11.008-5.312-3.2-1.536-6.272-3.264-9.408-4.928-3.968-2.048-7.872-4.16-11.712-6.4C315.52 841.536 311.424 839.04 307.392 836.48c-3.328-2.048-6.592-4.16-9.792-6.4-2.688-1.792-5.312-3.648-7.936-5.44-4.736-3.392-9.344-6.784-13.888-10.368-2.688-2.048-5.312-4.16-7.872-6.336-2.24-1.856-4.48-3.776-6.656-5.632-4.928-4.224-9.728-8.64-14.4-13.056-1.856-1.792-3.776-3.712-5.632-5.504-2.304-2.304-4.544-4.608-6.784-6.976-4.48-4.736-8.896-9.536-13.184-14.528-1.408-1.6-2.816-3.328-4.224-4.992-2.56-3.072-5.056-6.208-7.488-9.344-3.648-4.608-7.232-9.344-10.624-14.208-1.344-1.92-2.688-3.968-4.032-5.888-2.56-3.84-5.056-7.616-7.488-11.456-2.688-4.224-5.312-8.512-7.808-12.8-1.664-2.88-3.2-5.824-4.8-8.768-2.112-3.904-4.16-7.744-6.144-11.712s-3.904-7.872-5.696-11.904c-2.048-4.544-3.968-9.216-5.824-13.888-1.152-2.752-2.368-5.568-3.456-8.384-1.664-4.352-3.264-8.768-4.8-13.184C146.624 629.376 144.64 622.784 142.72 616.192 142.656 615.68 142.464 615.104 142.336 614.656 140.736 609.088 139.264 603.52 137.984 597.888 136.512 591.616 135.36 585.408 134.272 579.2 133.056 572.352 131.968 565.504 131.072 558.592 130.816 556.544 130.688 554.56 130.496 552.576 130.176 549.376 129.792 546.24 129.536 543.04 128.96 535.104 128.512 527.104 128.32 519.04c0-2.368 0-4.672 0-7.04s0-4.672 0-7.04c0.128-8.064 0.576-16.064 1.216-24 0.256-3.072 0.576-6.208 0.896-9.344 0.192-2.048 0.384-4.16 0.64-6.208 0.832-6.912 1.92-13.76 3.136-20.544 1.088-6.272 2.304-12.48 3.712-18.688C139.264 420.48 140.736 414.976 142.272 409.408c0.192-0.704 0.448-1.344 0.64-2.112 1.856-6.464 3.776-12.928 5.952-19.328C150.336 383.68 152 379.328 153.6 374.976c1.152-3.008 2.432-5.952 3.648-8.896C159.104 361.6 160.96 357.056 162.944 352.64c1.792-3.968 3.712-7.872 5.632-11.712C170.624 336.832 172.8 332.8 174.912 328.832c1.536-2.816 3.072-5.696 4.672-8.512 2.496-4.288 5.12-8.512 7.744-12.672 2.496-3.968 5.056-7.872 7.68-11.712 1.344-1.92 2.624-3.84 3.968-5.696 3.392-4.8 6.912-9.472 10.56-14.144 2.496-3.2 5.056-6.4 7.616-9.472C218.432 264.96 219.84 263.296 221.248 261.696c4.224-4.928 8.64-9.728 13.12-14.464C236.608 244.864 238.912 242.496 241.28 240.128c1.856-1.856 3.648-3.648 5.504-5.376C251.52 230.272 256.256 225.92 261.184 221.696c2.24-1.92 4.544-3.904 6.784-5.76 2.56-2.112 5.184-4.16 7.808-6.208 4.48-3.584 9.152-6.976 13.824-10.368 2.688-1.92 5.376-3.776 8.128-5.568 3.2-2.176 6.464-4.288 9.664-6.336 4.032-2.56 8.064-5.056 12.224-7.424 3.904-2.24 7.872-4.352 11.84-6.464C334.528 171.968 337.6 170.24 340.736 168.704 344.384 166.848 348.032 165.12 351.744 163.392c6.272-2.88 12.672-5.504 19.136-8.064 1.344-0.512 2.688-1.152 4.032-1.6 3.968-1.536 8-3.008 12.032-4.416C394.688 146.56 402.432 144.192 410.176 142.08c5.056-1.344 10.112-2.688 15.232-3.904 6.72-1.536 13.44-2.88 20.224-4.032 6.464-1.152 12.928-2.176 19.456-2.944 0.192 0 0.448 0 0.64-0.064 5.312-0.64 10.624-1.152 15.936-1.536 7.552-0.576 15.104-1.024 22.72-1.152 2.368 0 4.672 0 6.976 0 1.792 0 3.648 0 5.44 0C535.232 128.64 553.344 129.92 570.944 132.672c1.984 0.256 3.904 0.832 5.824 1.152C592.576 136.512 608 140.352 623.04 144.96 626.688 146.048 630.4 147.072 633.984 148.288c16.704 5.632 32.96 12.16 48.512 19.968 0.64 0.32 1.28 0.704 1.856 1.024 85.12 43.392 151.808 117.824 185.728 208.384l1.28-0.448c0.448 1.216 1.024 2.304 1.408 3.456 12.032 33.216 48.832 50.304 82.048 38.272 33.28-12.096 50.304-48.832 38.208-82.048-45.888-126.08-136.384-222.656-246.912-279.616-3.008-1.536-5.952-3.2-9.024-4.736-15.936-7.808-32.256-14.848-48.896-20.992-0.448-0.192-0.704-0.512-1.152-0.704-0.768-0.256-1.408-0.384-2.176-0.704-3.584-1.28-7.232-2.304-10.88-3.456-4.48-1.536-9.088-2.752-13.632-4.096-4.032-1.28-8.064-2.56-12.096-3.648-3.968-1.152-7.936-2.624-11.968-3.648-12.736-3.2-25.664-5.504-38.656-7.744-2.304-0.384-4.48-1.024-6.784-1.344-1.28-0.192-2.56-0.512-3.84-0.704C581.056 4.544 575.168 4.352 569.216 3.648 558.528 2.432 547.904 1.088 537.088 0.512c-6.336-0.32-12.672 0-19.008-0.064C515.968 0.448 514.048 0 512 0 508.864 0 505.856 0.384 502.72 0.448 497.408 0.576 492.16 0.256 486.848 0.512 481.344 0.832 475.968 1.664 470.464 2.112 463.552 2.688 456.64 3.328 449.728 4.16 445.44 4.672 441.216 4.8 436.864 5.44 432 6.208 427.2 7.488 422.4 8.32 414.144 9.792 405.952 11.392 397.824 13.248 394.432 14.016 390.976 14.464 387.648 15.296 383.872 16.256 380.096 17.664 376.32 18.688 376.128 18.752 375.936 18.816 375.744 18.88c-9.152 2.56-18.176 5.184-27.072 8.128-3.2 1.088-6.528 1.984-9.728 3.2-0.704 0.256-1.344 0.384-2.048 0.64C333.696 32 330.752 33.536 327.616 34.752 319.168 38.08 310.72 41.408 302.528 45.184 299.136 46.656 295.808 48.064 292.48 49.6 288.064 51.712 283.84 54.08 279.424 56.256 272.64 59.776 265.856 63.36 259.2 67.136 255.68 69.12 252.16 70.976 248.704 73.088 243.712 76.096 238.848 79.296 233.984 82.432c-5.184 3.392-10.304 6.784-15.36 10.304-3.84 2.688-7.68 5.248-11.392 8-5.056 3.712-9.92 7.68-14.784 11.52-3.968 3.2-7.936 6.464-11.84 9.792C176.512 125.568 172.352 129.024 168.384 132.608 163.84 136.704 159.552 140.992 155.136 145.28 151.808 148.544 148.48 151.872 145.152 155.264 140.992 159.552 136.768 163.84 132.736 168.256c-3.712 4.096-7.232 8.32-10.752 12.544-3.264 3.84-6.464 7.744-9.6 11.712-3.904 4.8-7.744 9.6-11.456 14.592C97.984 210.944 95.296 214.912 92.544 218.88 89.088 223.872 85.76 228.864 82.432 233.984 79.36 238.784 76.16 243.52 73.216 248.448 70.976 252.096 68.992 255.872 66.88 259.648 63.168 266.112 59.712 272.704 56.32 279.36 54.144 283.648 51.84 287.872 49.728 292.224 48 295.808 46.528 299.456 44.928 303.04 41.28 311.104 38.016 319.296 34.752 327.616 33.536 330.752 32 333.696 30.848 336.896 30.656 337.408 30.592 337.984 30.336 338.56c-1.28 3.584-2.304 7.168-3.52 10.752C24 357.76 21.504 366.272 19.136 374.848c-0.64 2.432-1.472 4.736-2.176 7.168C16.512 383.744 15.872 385.472 15.36 387.264 14.464 390.976 13.888 394.752 13.056 398.528c-1.728 7.616-3.2 15.296-4.608 23.04C7.488 426.752 6.208 431.872 5.376 437.12 4.8 441.024 4.736 444.928 4.224 448.832c-0.064 0.384-0.064 0.896-0.128 1.28C3.328 456.64 2.688 463.168 2.112 469.76 1.664 475.52 0.768 481.216 0.512 486.976c-0.256 5.44 0 10.88-0.064 16.32C0.384 506.24 0 509.056 0 512s0.384 5.76 0.448 8.704c0.064 5.44-0.192 10.816 0.064 16.32C0.768 542.784 1.664 548.48 2.112 554.24c0.576 6.592 1.216 13.12 1.984 19.648 0.064 0.448 0.064 0.96 0.128 1.408C4.736 579.2 4.8 582.976 5.376 586.88c0.768 5.248 2.112 10.368 3.072 15.552 1.344 7.744 2.88 15.424 4.608 23.04C13.888 629.248 14.464 633.024 15.36 636.672c0.448 1.792 1.216 3.648 1.664 5.504 0.64 2.304 1.408 4.608 2.112 6.912 2.432 8.64 4.864 17.152 7.744 25.536 1.216 3.584 2.24 7.168 3.52 10.752 0.192 0.576 0.32 1.152 0.512 1.664 1.152 3.2 2.688 6.144 3.904 9.28 3.2 8.32 6.528 16.512 10.112 24.64 1.6 3.584 3.136 7.168 4.8 10.752 2.112 4.352 4.416 8.64 6.592 12.864 3.392 6.656 6.848 13.248 10.56 19.776 2.112 3.776 4.096 7.488 6.336 11.136 2.944 4.992 6.144 9.664 9.216 14.528 3.328 5.12 6.656 10.112 10.112 15.104 2.752 3.968 5.44 7.936 8.32 11.776 3.712 4.992 7.552 9.792 11.456 14.656 3.136 3.968 6.336 7.872 9.6 11.712 3.584 4.16 7.04 8.448 10.752 12.544 4.032 4.416 8.256 8.704 12.416 12.992 3.328 3.392 6.656 6.656 9.984 9.984 4.352 4.224 8.704 8.512 13.248 12.608 3.968 3.648 8.128 7.04 12.224 10.56 3.904 3.328 7.872 6.592 11.84 9.728 4.864 3.904 9.728 7.808 14.72 11.584 3.776 2.752 7.616 5.312 11.392 8 5.056 3.584 10.24 6.976 15.424 10.368 4.864 3.136 9.664 6.336 14.656 9.28 3.456 2.112 7.04 3.968 10.56 6.016 6.656 3.84 13.376 7.36 20.224 10.88 4.352 2.176 8.64 4.544 13.056 6.656 3.328 1.536 6.656 3.008 9.984 4.416 8.256 3.776 16.64 7.104 25.152 10.432 3.136 1.216 6.08 2.752 9.28 3.904 0.704 0.256 1.344 0.384 2.048 0.64 3.2 1.216 6.528 2.112 9.728 3.2 8.896 3.008 17.92 5.632 27.072 8.128 0.192 0.064 0.384 0.128 0.576 0.192 3.776 1.088 7.552 2.496 11.328 3.456 3.328 0.832 6.784 1.344 10.176 2.048 8.128 1.856 16.32 3.456 24.576 4.928 4.864 0.896 9.6 2.112 14.528 2.88 4.288 0.64 8.576 0.768 12.864 1.344 6.848 0.832 13.76 1.472 20.736 1.984 5.44 0.512 10.88 1.344 16.32 1.536 5.376 0.32 10.688 0 16 0.128C505.92 1023.552 508.928 1024 512 1024c2.048 0 3.968-0.448 6.08-0.512 6.336-0.064 12.608 0.32 18.944 0 11.712-0.64 23.232-2.048 34.752-3.456 5.056-0.576 10.048-0.768 15.104-1.472 1.344-0.192 2.688-0.576 4.032-0.768 2.112-0.384 4.224-0.96 6.4-1.344 13.12-2.24 26.24-4.608 39.104-7.872 3.264-0.832 6.592-2.048 9.792-2.944 4.8-1.344 9.536-2.88 14.336-4.288 4.416-1.344 8.96-2.56 13.312-3.968 3.712-1.28 7.424-2.304 11.136-3.648 0.704-0.256 1.344-0.384 2.048-0.64 0.384-0.128 0.64-0.512 1.088-0.64 16.768-6.208 33.088-13.312 49.152-21.184 2.88-1.408 5.632-3.008 8.512-4.416 110.656-56.896 201.344-153.536 247.232-279.744C1005.184 653.888 988.096 617.216 954.88 605.056z" fill="#56abe4"></path></g></g></svg>