<?xml version="1.0" standalone="no"?><!DOCTYPE svg PUBLIC "-//W3C//DTD SVG 1.1//EN" "http://www.w3.org/Graphics/SVG/1.1/DTD/svg11.dtd"><svg width="200" height="200" viewBox="0 0 200 200" version="1.1" xmlns="http://www.w3.org/2000/svg" xmlns:xlink="http://www.w3.org/1999/xlink"><defs><style type="text/css"><![CDATA[

]]></style></defs><g class="transform-group"><g transform="scale(0.1953125, 0.1953125)"><path d="M512 816c248 0 452.8-283.2 460.8-294.4 3.2-4.8 3.2-12.8 0-19.2C964.8 491.2 761.6 208 512 208 260.8 208 59.2 491.2 51.2 502.4c-3.2 4.8-3.2 12.8 0 17.6C59.2 532.8 262.4 816 512 816z m0-576c209.6 0 390.4 224 428.8 272C902.4 560 720 784 512 784 302.4 784 121.6 560 83.2 512 120 464 300.8 240 512 240zM512 688c97.6 0 176-78.4 176-176s-78.4-176-176-176-176 78.4-176 176 78.4 176 176 176z m0-320c80 0 144 64 144 144s-64 144-144 144-144-64-144-144 64-144 144-144z" fill="#a9b7b7"></path></g></g></svg>