<?xml version="1.0" standalone="no"?><!DOCTYPE svg PUBLIC "-//W3C//DTD SVG 1.1//EN" "http://www.w3.org/Graphics/SVG/1.1/DTD/svg11.dtd"><svg width="200" height="200" viewBox="0 0 200 200" version="1.1" xmlns="http://www.w3.org/2000/svg" xmlns:xlink="http://www.w3.org/1999/xlink"><defs><style type="text/css"><![CDATA[
@font-face { font-family: ifont; src: url("//at.alicdn.com/t/font_1442373896_4754455.eot?#iefix") format("embedded-opentype"), url("//at.alicdn.com/t/font_1442373896_4754455.woff") format("woff"), url("//at.alicdn.com/t/font_1442373896_4754455.ttf") format("truetype"), url("//at.alicdn.com/t/font_1442373896_4754455.svg#ifont") format("svg"); }

]]></style></defs><g class="transform-group"><g transform="scale(0.1953125, 0.1953125)"><path d="M641.442094 198.849884l319.68802 0 0 43.956118-319.68802 0 0-43.956118ZM774.933411 81.410148l48.075949 0 0 276.79-48.075949 0 0-276.79ZM237.95553 657.214313l-108.885919 277.31598L70.085218 934.530292l313.051879-784.875854 58.984393 0 313.035506 784.875854-58.96802 0-113.427352-277.31598L237.95553 657.214313zM564.614311 612.18884 455.728392 335.592244c-9.081843-24.175609-16.645099-46.847981-22.688745-68.01814-6.043646-15.110139-13.606903-33.241079-22.688745-54.411237-9.081843 33.257451-24.191982 72.5432-45.361117 117.887944L256.102842 612.18884 564.614311 612.18884z" fill="#0bc2b4"></path></g></g></svg>